<svg width="1921" height="415" viewBox="0 0 1921 415" fill="none" xmlns="http://www.w3.org/2000/svg">
<path d="M0 107.545L79.0778 284.679L210.663 415L79.7104 10.7542L0 107.545Z" fill="#E2E4E8"/>
<path d="M128.421 0L173.97 141.707L202.438 151.829L235.967 45.5488L128.421 0Z" fill="#E2E4E8"/>
<path d="M456.122 133.483L392.86 221.417L247.989 168.91L289.11 42.3855L401.084 13.9175L456.122 133.483Z" fill="#E2E4E8"/>
<path d="M363.126 263.17L260.008 404.877L193.583 201.806L363.126 263.17Z" fill="#E2E4E8"/>
<path d="M187.257 59.4663L202.44 151.829L235.969 45.5486L187.257 59.4663Z" fill="#CACED6"/>
<path d="M173.97 141.707L202.438 151.829L187.255 59.4665L128.421 0L173.97 141.707Z" fill="#F2F3F4"/>
<path d="M137.912 189.787L79.0778 284.68L0 107.546L137.912 189.787Z" fill="#CACED6"/>
<path d="M289.11 42.3853L341.617 123.361L247.989 168.91L289.11 42.3853Z" fill="#F2F3F4"/>
<path d="M401.083 13.9175L341.617 123.361L289.109 42.3855L401.083 13.9175Z" fill="#F7F8F9"/>
<path d="M392.858 221.418L341.616 123.361L456.12 133.483L392.858 221.418Z" fill="#CACED6"/>
<path d="M263.804 280.251L260.008 404.877L193.583 201.806L263.804 280.251Z" fill="#F2F3F4"/>
<path d="M260.008 404.879L263.804 280.252L363.126 263.171L260.008 404.879Z" fill="#CACED6"/>
<path d="M210.663 415L79.0776 284.68L173.971 302.393L210.663 415Z" fill="#CACED6"/>
<path d="M79.7104 10.7542L0 107.545L137.912 189.786L79.7104 10.7542Z" fill="#E2E4E8"/>
<path d="M173.971 302.393L79.0776 284.68L137.911 189.787L173.971 302.393Z" fill="#E2E4E8"/>
<path d="M341.617 123.361L392.86 221.418L247.989 168.91L341.617 123.361Z" fill="#E2E4E8"/>
<path d="M401.082 13.9175L456.12 133.483L341.616 123.361L401.082 13.9175Z" fill="#E2E4E8"/>
<path d="M363.126 263.17L263.804 280.251L193.583 201.806L363.126 263.17Z" fill="#E2E4E8"/>
<path d="M235.967 45.5488L187.255 59.4665L128.421 0L235.967 45.5488Z" fill="#E2E4E8"/>
<path d="M1077.99 83.5073H1034.97V332.128H1077.99V83.5073Z" fill="white"/>
<path d="M858.468 82.874L812.919 332.127H854.672L862.264 277.089L899.589 304.924L917.302 332.127H959.055L911.608 82.874H858.468ZM867.958 239.132L885.038 132.219H885.671L910.343 275.191L867.958 239.132Z" fill="white"/>
<path d="M1170.98 89.2002H1226.59C1300.79 89.2002 1335.96 135.873 1335.96 208.603C1335.96 281.334 1300.79 329.597 1227.08 329.597H1170.98V89.2002ZM1224.94 315.528C1290.08 315.528 1318.4 271.485 1318.4 208.787C1318.4 146.088 1290.08 103.453 1224.94 103.453H1187.81V315.344L1224.94 315.528Z" fill="white"/>
<path d="M1384.81 89.2002H1516.33V103.636H1401.58V194.718H1497.98V209.154H1401.58V314.916H1520V329.597H1384.81V89.2002Z" fill="white"/>
<path d="M1635.08 205.116L1567.98 89.2002H1586.33L1625.97 160.035C1632.39 170.984 1637.53 179.548 1645.42 192.883H1646.89C1653.92 179.548 1658.39 170.984 1664.75 160.035L1704.02 89.2002H1721.27L1653.98 206.095L1726.22 329.597H1707.87L1665.91 255.765C1659.43 244.02 1652.33 232.276 1643.89 217.656H1642.42C1634.65 232.276 1628.23 244.02 1621.81 255.765L1580.21 329.597H1563.02L1635.08 205.116Z" fill="white"/>
<path d="M739.536 83.5073H696.517L651.601 175.238H650.968V83.5073H607.95V332.128H650.968V244.193L666.784 216.358H667.417L702.211 332.128H745.862L693.987 175.87L739.536 83.5073Z" fill="white"/>
<path d="M858.468 82.874L812.919 332.127H854.672L862.264 277.089L899.589 304.924L917.302 332.127H959.055L911.608 82.874H858.468ZM867.958 239.132L885.038 132.219H885.671L910.343 275.191L867.958 239.132Z" fill="white"/>
<path d="M1860.59 107.164L1825.29 186.874H1816.98L1781.68 107.164H1790.79L1821.31 176.398L1852.05 107.164H1860.59ZM1894.09 141.325C1902.44 141.781 1908.78 144.058 1913.11 148.158C1917.51 152.181 1919.71 157.457 1919.71 163.986C1919.71 168.541 1918.61 172.602 1916.41 176.17C1914.21 179.662 1910.95 182.433 1906.62 184.483C1902.29 186.532 1897.02 187.557 1890.79 187.557C1885.02 187.557 1879.56 186.646 1874.39 184.824C1869.31 182.926 1865.21 180.421 1862.09 177.309L1866.08 170.818C1868.74 173.551 1872.27 175.79 1876.67 177.537C1881.07 179.207 1885.78 180.042 1890.79 180.042C1897.32 180.042 1902.37 178.637 1905.94 175.828C1909.5 172.944 1911.29 168.996 1911.29 163.986C1911.29 159.051 1909.5 155.18 1905.94 152.371C1902.37 149.562 1896.98 148.158 1889.77 148.158H1884.07V142.122L1906.16 114.451H1865.4V107.164H1916.64V112.971L1894.09 141.325Z" fill="#00FF29"/>
</svg>
