<svg width="100" height="100" viewBox="0 0 100 100" fill="none" xmlns="http://www.w3.org/2000/svg">
<rect width="100" height="100" rx="50" fill="#181818"/>
<path d="M25 68.5714L37.2571 61.1429V31.4286L25 38.8571V68.5714Z" fill="#F2F3F4"/>
<path d="M37.2571 76L49.5143 68.5714L37.2571 61.1429L25 68.5714L37.2571 76Z" fill="#CACED6"/>
<path d="M49.5143 68.5714L61.7714 61.1429L49.5143 53.7143L37.2571 61.1429L49.5143 68.5714Z" fill="#E2E4E8"/>
<path d="M61.7714 76L74.0286 68.5714L61.7714 61.1429L49.5143 68.5714L61.7714 76Z" fill="#E2E4E8"/>
<path d="M61.7714 61.1429L74.0286 53.7143L61.7714 46.2857L49.5143 53.7143L61.7714 61.1429Z" fill="#CACED6"/>
<path d="M61.7714 46.2857L74.0286 53.7143V38.8571L49.5143 24L37.2571 31.4286L61.7714 46.2857Z" fill="#F7F8F9"/>
</svg>
